<svg xmlns="http://www.w3.org/2000/svg" width="11.356" height="11.348" viewBox="0 0 11.356 11.348">
  <g id="phone" transform="translate(0.29 0.29)">
    <g id="Group_3" data-name="Group 3" transform="translate(0 0)">
      <g id="Group_2" data-name="Group 2" transform="translate(0 0)">
        <path id="Path_2" data-name="Path 2" d="M1.284,9.356,3.472,7.9a.639.639,0,0,1,.855.139l.659.983c.082.108-.082.56.274,0A9.142,9.142,0,0,0,7.344,7.363a7.356,7.356,0,0,0,1.5-1.909l.066-.121a.273.273,0,0,0-.072-.351l-.819-.637a.639.639,0,0,1-.139-.855L9.339,1.3a.635.635,0,0,1,.856-.193l.915.55a1.291,1.291,0,0,1,.588.764c.329,1.2.082,3.272-2.97,6.324-2.428,2.427-4.235,3.08-5.477,3.08a3.191,3.191,0,0,1-.847-.111,1.289,1.289,0,0,1-.764-.588l-.55-.914A.635.635,0,0,1,1.284,9.356Zm4.325-.178c-.392.219-.737.147-1.565-.921a.277.277,0,0,0-.371-.06l1.1.822Z" transform="translate(-1 -1.018)" stroke="#000" stroke-width="0.5"/>
        <path id="Path_3" data-name="Path 3" d="M286.05,69.684a3.066,3.066,0,0,0-3.062,3.062.18.18,0,0,1-.36,0,3.426,3.426,0,0,1,3.422-3.422.18.18,0,0,1,0,.36Z" transform="translate(-281.366 -67.882)" stroke="#000" stroke-width="0.5"/>
        <path id="Path_4" data-name="Path 4" d="M284.97,120.884a1.984,1.984,0,0,0-1.981,1.981.18.18,0,0,1-.36,0,2.344,2.344,0,0,1,2.342-2.342.18.18,0,0,1,0,.36Z" transform="translate(-280.285 -118.001)" stroke="#000" stroke-width="0.5"/>
        <path id="Path_5" data-name="Path 5" d="M283.889,172.084a.9.9,0,0,0-.9.9.18.18,0,0,1-.36,0,1.262,1.262,0,0,1,1.261-1.261.18.18,0,1,1,0,.36Z" transform="translate(-279.205 -168.121)" stroke="#000" stroke-width="0.5"/>
      </g>
    </g>
  </g>
</svg>
